# xmcd
# 
# Track frame offsets:
#     150
#     30397
#     55565
#     80916
#     107922
#     132295
#     154690
# 
# Disc length: 2169
# 
# Revision: 0
# Processed by: cddbd v1.5.2PL0 Copyright (c) Steve Scherf et al.
# Submitted via: fre:ac v1.0.17
# 
DISCID=51087707
DTITLE=Tosin Aribisala - Hallelu-jazz Project
DYEAR=2006
DGENRE=
TTITLE0=what's on your mind
TTITLE1=Papa's deeds (baba tise)
TTITLE2=Silekun
TTITLE3=Ibigiga (higher ground)
TTITLE4=Life after life (a song for rites of passage)
TTITLE5=Eyin baba
TTITLE6=what's on your mind (reprise)
EXTD=
EXTT0=
EXTT1=
EXTT2=
EXTT3=
EXTT4=
EXTT5=
EXTT6=
PLAYORDER=
